<?xml version="1.0" encoding="utf-8"?>
<!-- Generator: Adobe Illustrator 24.3.0, SVG Export Plug-In . SVG Version: 6.00 Build 0)  -->
<svg version="1.1" id="Layer_1" xmlns="http://www.w3.org/2000/svg" xmlns:xlink="http://www.w3.org/1999/xlink" x="0px" y="0px"
	 viewBox="0 0 841.89 1190.55" style="enable-background:new 0 0 841.89 1190.55;" xml:space="preserve">
<style type="text/css">
	.st0{fill:#FFFFFF;stroke:#000000;stroke-miterlimit:10;}
	.st1{stroke:#000000;stroke-width:4;stroke-miterlimit:10;}
	.st2{fill:none;stroke:#000000;stroke-width:40;stroke-miterlimit:10;}
</style>
<path class="st0" d="M1536.5-238.5"/>
<path class="st1" d="M627.36,322.85l-83.9,93.11c-9.19,10.2-22.31,15.99-36.04,15.91l-124.23-0.75
	c-12.85-0.08-25.08-5.57-33.68-15.12l-83.85-93.13C262.71,319.61,257,314,257,314l289.77,0.86c26.61,0.08,48.23-21.47,48.23-48.09
	v-1.11c0-26.29-21.37-47.57-47.66-47.46l-306.84,1.31l5-38.06c0-32.01,25.95-57.96,57.96-57.96h285.43
	c32.37,0,58.61,26.24,58.61,58.61v88.3C647.5,289.78,640.32,308.46,627.36,322.85z"/>
<path class="st2" d="M310.24,180H200.26c-24.99,0-45.26,19.26-45.26,43.02v0c0,23.76,20.26,43.02,45.26,43.02L548,266"/>
<line class="st2" x1="446.5" y1="431.5" x2="448.94" y2="1102"/>
<circle cx="548" cy="266" r="20"/>
<circle cx="449" cy="1101" r="20"/>
<path d="M447.72,503C498.95,511.81,558,519.51,564,535c-3.31,16.13-58.16,24.32-116.28,32V503z"/>
<path d="M447.72,631c-51.02-9.04-109.94-17-117.07-32c4.04-20.84,66.54-24.68,117.07-32V631z"/>
<path d="M448.94,695c53.1-7.11,108.3-13.7,116.06-32c-5.68-21.13-67.24-24.67-117.28-32L448.94,695z"/>
<path d="M448.94,759c-55.26-7.61-109.06-15.5-116.92-32c5.79-18.72,66.88-24.02,116.92-32V759z"/>
<path d="M448.94,823c62.18-7.02,109.75-16.28,115.06-32c-4.91-14.76-65.43-22.71-115.06-32V823z"/>
<path d="M448.94,887c-51.75-9.39-109.85-15.87-115.55-32c6.74-20.72,67.61-24.31,115.55-32V887z"/>
<path d="M448.94,951c66.98-5.13,111.56-14.59,115.06-32c-5.29-15.84-62.41-23.57-115.06-32V951z"/>
<path d="M448.94,1015c-50.43-6.33-105.58-12.26-114.18-32c6.85-20.08,59.42-26.06,114.18-32V1015z"/>
<path d="M448.94,1078.78c58.19-5.54,110.79-11.92,115.06-31.78c-5.96-17.1-61.25-24.23-115.06-32V1078.78z"/>
</svg>
