<?xml version="1.0" encoding="utf-8"?>
<!-- Generator: Adobe Illustrator 24.3.0, SVG Export Plug-In . SVG Version: 6.00 Build 0)  -->
<svg version="1.1" id="Layer_1" xmlns="http://www.w3.org/2000/svg" xmlns:xlink="http://www.w3.org/1999/xlink" x="0px" y="0px"
	 viewBox="0 0 841.89 1190.55" style="enable-background:new 0 0 841.89 1190.55;" xml:space="preserve">
<style type="text/css">
	.st0{fill:#FFFFFF;stroke:#000000;stroke-miterlimit:10;}
	.st1{stroke:#000000;stroke-miterlimit:10;}
	.st2{fill:none;stroke:#000000;stroke-width:40;stroke-miterlimit:10;}
</style>
<path class="st0" d="M1536.5-238.5"/>
<path d="M346.06,429.47l175.85-0.83c13.47-0.06,24.4-10.93,24.55-24.4l0.79-73.05c147.06-3.17,150.23,58.19,185.15,268.73
	c14.81,52.9,58.19,40.2,59.25-2.12c-31.74-275.07-49.73-327.97-245.45-339.61l-311.05,1.06v84.64h86.75v61.54
	C321.9,418.75,332.74,429.53,346.06,429.47z"/>
<rect x="126.17" y="275.12" width="93.1" height="52.9"/>
<path class="st1" d="M107.13,339.65l-42.02-4.33c-8.8-1.79-15.12-9.53-15.12-18.5v-26.49c0-8.78,6.35-16.27,15.01-17.72l42.12-3.85
	V339.65z"/>
<line class="st2" x1="431.93" y1="240.2" x2="431.93" y2="168.26"/>
<path class="st1" d="M466.34,176.2h-69.35c-12.84,0-23.25-10.41-23.25-23.25v-2.7c0-12.84,10.41-23.25,23.25-23.25h69.35
	c12.84,0,23.25,10.41,23.25,23.25v2.7C489.59,165.79,479.18,176.2,466.34,176.2z"/>
<path d="M526.62,498.88l-0.3-24.23c-0.13-10.45-8.64-18.86-19.09-18.86h-144.8c-10.4,0-18.84,8.43-18.84,18.84v25.3
	c-68.31,40.2-101,88.45-102.45,149.7v349.13c8.38,47,36.71,75.57,84.46,86.23l216.89-1.06c51.08-12.68,75.05-42.7,79.52-85.17
	V649.64C618.6,584.55,590.63,543.31,526.62,498.88z M413.94,803.05l-130.13,1.06V640.12c4.75-44.54,43.69-83.66,87.7-119.04
	c2.94-2.36,4.67-5.91,4.76-9.67l0.31-13.18c0.1-4.05,3.41-7.28,7.46-7.28h28.84L413.94,803.05z M580.05,803.05H453.36l1.31-312.63
	l29.65,0.53c4.05,0,7.36,3.23,7.46,7.28l0.31,13.25c0.09,3.72,1.8,7.21,4.69,9.55c43.82,35.46,79.58,75.58,84.32,120.14
	L580.05,803.05z"/>
<path class="st1" d="M570,246.02v-18.9c0-3.81,3.09-6.91,6.91-6.91h57.22c4.64,0,8.83,2.76,10.67,7.01l14.07,32.54
	C627.99,251.64,598.12,246.37,570,246.02z"/>
</svg>
