<?xml version="1.0" encoding="utf-8"?>
<!-- Generator: Adobe Illustrator 24.3.0, SVG Export Plug-In . SVG Version: 6.00 Build 0)  -->
<svg version="1.1" id="Layer_1" xmlns="http://www.w3.org/2000/svg" xmlns:xlink="http://www.w3.org/1999/xlink" x="0px" y="0px"
	 viewBox="0 0 841.89 1190.55" style="enable-background:new 0 0 841.89 1190.55;" xml:space="preserve">
<style type="text/css">
	.st0{fill:#FFFFFF;stroke:#000000;stroke-miterlimit:10;}
	.st1{stroke:#000000;stroke-miterlimit:10;}
</style>
<path class="st0" d="M1536.5-238.5"/>
<path class="st1" d="M388.59,223.01l-46.05,88.29c-5.89,11.3-1.71,25.23,9.42,31.43l123.37,68.6
	c54.17,51.27,67.1,58.94,97.66,121.99c101.75-65.35,150.2-125.8,145.75-231.88c-73.54,6.04-90.96-2.15-169.61-20.79l-126.77-68.04
	C410.18,206.07,394.99,210.75,388.59,223.01z"/>
<path class="st1" d="M743.5,299.5l39-5c13.39,106.23-65.29,245.22-182,296l-16-35C692.51,494.02,745.8,406.98,743.5,299.5z"/>
<path d="M552.1,262.47l-101.9-55.43l5.54-10.19c4.33-7.95,14.28-10.9,22.24-6.57l73.31,39.88c7.84,4.26,10.73,14.07,6.47,21.91
	L552.1,262.47z"/>
<path d="M360.59,374.61l99.44,54.12c0,0-208.13,317.34-240.03,385.27c-5.12,10.9-29.55,68.57-33.94,82
	c-16.4,50.09-13.28,85.56-17.67,91.91c-1.33,1.92-39.38,18.54-75.35,11.83C73,996,64,994,59,987c-5.48-7.68,12.27-53.75,21.56-75.47
	s24.62-53.2,30.63-64.73s109.32-176.45,125.82-203.93s44.6-68.02,80.76-144.48c23.93-50.6,31.56-81.95,33.84-94.07
	c0.87-4.61,2.06-9.14,3.55-13.58L360.59,374.61z"/>
</svg>
