<svg width="1354" height="200" viewBox="0 0 1354 200" fill="none" xmlns="http://www.w3.org/2000/svg">
<circle cx="100" cy="100" r="100" fill="#DBAA60"/>
<path d="M18.208 126V80.304H45.344V85.36H23.968V99.632H30.752C35.3173 99.632 38.8587 100.208 41.376 101.36C43.8933 102.469 45.6427 104.005 46.624 105.968C47.6053 107.888 48.096 110.107 48.096 112.624C48.096 116.805 46.8373 120.091 44.32 122.48C41.8027 124.827 37.5573 126 31.584 126H18.208ZM31.008 121.072C35.104 121.072 37.984 120.389 39.648 119.024C41.312 117.616 42.144 115.483 42.144 112.624C42.144 109.68 41.2267 107.611 39.392 106.416C37.5573 105.221 34.4427 104.624 30.048 104.624H23.968V121.072H31.008ZM70.063 91.056C73.007 91.056 75.5243 91.696 77.615 92.976C79.7483 94.256 81.3697 96.0693 82.479 98.416C83.631 100.72 84.207 103.429 84.207 106.544V109.936H60.719C60.8043 113.819 61.7857 116.784 63.663 118.832C65.583 120.837 68.2497 121.84 71.663 121.84C73.839 121.84 75.759 121.648 77.423 121.264C79.1297 120.837 80.879 120.24 82.671 119.472V124.4C80.9217 125.168 79.1937 125.723 77.487 126.064C75.7803 126.448 73.7537 126.64 71.407 126.64C68.1643 126.64 65.2843 125.979 62.767 124.656C60.2923 123.333 58.351 121.371 56.943 118.768C55.5777 116.123 54.895 112.901 54.895 109.104C54.895 105.349 55.5137 102.128 56.751 99.44C58.031 96.752 59.8017 94.6827 62.063 93.232C64.367 91.7813 67.0337 91.056 70.063 91.056ZM69.999 95.664C67.311 95.664 65.1777 96.5387 63.599 98.288C62.063 99.9947 61.1457 102.384 60.847 105.456H78.319C78.2763 102.555 77.5937 100.208 76.271 98.416C74.9483 96.5813 72.8577 95.664 69.999 95.664ZM98.572 91.696V105.968H117.196V91.696H122.828V126H117.196V110.704H98.572V126H92.94V91.696H98.572ZM142.714 91.056C146.639 91.056 149.754 91.8453 152.058 93.424C154.405 94.96 155.578 97.1787 155.578 100.08C155.578 102.171 155.002 103.835 153.85 105.072C152.698 106.267 151.119 107.141 149.114 107.696V107.952C150.479 108.336 151.738 108.869 152.89 109.552C154.042 110.235 154.959 111.131 155.642 112.24C156.367 113.349 156.73 114.779 156.73 116.528C156.73 119.387 155.535 121.797 153.146 123.76C150.799 125.68 147.109 126.64 142.074 126.64C139.599 126.64 137.359 126.427 135.354 126C133.349 125.616 131.685 125.083 130.362 124.4V119.344C131.813 120.027 133.519 120.645 135.482 121.2C137.487 121.755 139.663 122.032 142.01 122.032C144.57 122.032 146.725 121.605 148.474 120.752C150.266 119.856 151.162 118.341 151.162 116.208C151.162 112.368 147.898 110.448 141.37 110.448H136.762V105.84H140.474C143.418 105.84 145.765 105.456 147.514 104.688C149.306 103.877 150.202 102.512 150.202 100.592C150.202 98.9707 149.519 97.7547 148.154 96.944C146.831 96.1333 144.911 95.728 142.394 95.728C140.517 95.728 138.853 95.92 137.402 96.304C135.994 96.6453 134.437 97.1787 132.73 97.904L130.746 93.424C134.33 91.8453 138.319 91.056 142.714 91.056ZM194.889 108.784C194.889 114.459 193.438 118.853 190.537 121.968C187.678 125.083 183.796 126.64 178.889 126.64C175.86 126.64 173.15 125.957 170.761 124.592C168.414 123.184 166.558 121.157 165.193 118.512C163.828 115.824 163.145 112.581 163.145 108.784C163.145 103.109 164.574 98.736 167.433 95.664C170.292 92.592 174.174 91.056 179.081 91.056C182.196 91.056 184.926 91.76 187.273 93.168C189.662 94.5333 191.518 96.5387 192.841 99.184C194.206 101.787 194.889 104.987 194.889 108.784ZM168.969 108.784C168.969 112.837 169.758 116.059 171.337 118.448C172.958 120.795 175.518 121.968 179.017 121.968C182.473 121.968 185.012 120.795 186.633 118.448C188.254 116.059 189.065 112.837 189.065 108.784C189.065 104.731 188.254 101.552 186.633 99.248C185.012 96.944 182.452 95.792 178.953 95.792C175.454 95.792 172.916 96.944 171.337 99.248C169.758 101.552 168.969 104.731 168.969 108.784Z" fill="black"/>
<path d="M218.569 126.64C216.606 126.64 214.9 126.469 213.449 126.128C212.041 125.829 210.718 125.381 209.481 124.784V119.92C210.761 120.432 212.148 120.88 213.641 121.264C215.134 121.648 216.82 121.84 218.697 121.84C222.025 121.84 224.67 120.944 226.633 119.152C228.596 117.36 229.684 114.523 229.897 110.64H213.001V106.032H229.833C229.534 102.533 228.532 99.9733 226.825 98.352C225.161 96.7307 222.708 95.92 219.465 95.92C218.228 95.92 216.862 96.0907 215.369 96.432C213.918 96.7733 212.617 97.1573 211.465 97.584L209.865 93.04C211.102 92.4853 212.574 92.016 214.281 91.632C215.988 91.248 217.694 91.056 219.401 91.056C222.601 91.056 225.417 91.6533 227.849 92.848C230.324 94.0427 232.244 95.9413 233.609 98.544C235.017 101.147 235.721 104.581 235.721 108.848C235.721 112.901 234.974 116.251 233.481 118.896C232.03 121.541 230.004 123.504 227.401 124.784C224.841 126.021 221.897 126.64 218.569 126.64ZM270.802 126H265.106V96.368H254.994C254.439 103.579 253.671 109.403 252.69 113.84C251.709 118.235 250.407 121.435 248.786 123.44C247.165 125.445 245.117 126.448 242.642 126.448C242.087 126.448 241.533 126.405 240.978 126.32C240.466 126.277 240.039 126.171 239.698 126V121.776C239.954 121.861 240.231 121.925 240.53 121.968C240.829 122.011 241.127 122.032 241.426 122.032C243.73 122.032 245.565 119.579 246.93 114.672C248.338 109.765 249.405 102.107 250.13 91.696H270.802V126ZM294.938 91.056C297.882 91.056 300.399 91.696 302.49 92.976C304.623 94.256 306.245 96.0693 307.354 98.416C308.506 100.72 309.082 103.429 309.082 106.544V109.936H285.594C285.679 113.819 286.661 116.784 288.538 118.832C290.458 120.837 293.125 121.84 296.538 121.84C298.714 121.84 300.634 121.648 302.298 121.264C304.005 120.837 305.754 120.24 307.546 119.472V124.4C305.797 125.168 304.069 125.723 302.362 126.064C300.655 126.448 298.629 126.64 296.282 126.64C293.039 126.64 290.159 125.979 287.642 124.656C285.167 123.333 283.226 121.371 281.818 118.768C280.453 116.123 279.77 112.901 279.77 109.104C279.77 105.349 280.389 102.128 281.626 99.44C282.906 96.752 284.677 94.6827 286.938 93.232C289.242 91.7813 291.909 91.056 294.938 91.056ZM294.874 95.664C292.186 95.664 290.053 96.5387 288.474 98.288C286.938 99.9947 286.021 102.384 285.722 105.456H303.194C303.151 102.555 302.469 100.208 301.146 98.416C299.823 96.5813 297.733 95.664 294.874 95.664ZM338.103 91.696H344.247L329.591 108.208L345.463 126H338.935L323.447 108.592V126H317.815V91.696H323.447V108.336L338.103 91.696ZM375.37 96.432H364.17V126H358.602V96.432H347.53V91.696H375.37V96.432ZM398.448 91.056C402.672 91.056 406.064 92.528 408.624 95.472C411.226 98.416 412.528 102.853 412.528 108.784C412.528 114.629 411.226 119.067 408.624 122.096C406.064 125.125 402.65 126.64 398.384 126.64C395.738 126.64 393.541 126.149 391.792 125.168C390.085 124.144 388.741 122.971 387.76 121.648H387.376C387.461 122.373 387.546 123.291 387.632 124.4C387.717 125.509 387.76 126.469 387.76 127.28V141.36H382.128V91.696H386.736L387.504 96.368H387.76C388.784 94.8747 390.128 93.616 391.792 92.592C393.456 91.568 395.674 91.056 398.448 91.056ZM397.424 95.792C393.925 95.792 391.45 96.7733 390 98.736C388.592 100.699 387.845 103.685 387.76 107.696V108.784C387.76 113.008 388.442 116.272 389.808 118.576C391.216 120.837 393.797 121.968 397.552 121.968C399.642 121.968 401.349 121.392 402.672 120.24C404.037 119.088 405.04 117.531 405.68 115.568C406.362 113.563 406.704 111.28 406.704 108.72C406.704 104.795 405.936 101.659 404.4 99.312C402.906 96.9653 400.581 95.792 397.424 95.792ZM451.326 108.784C451.326 114.459 449.876 118.853 446.975 121.968C444.116 125.083 440.233 126.64 435.327 126.64C432.297 126.64 429.588 125.957 427.199 124.592C424.852 123.184 422.996 121.157 421.631 118.512C420.265 115.824 419.583 112.581 419.583 108.784C419.583 103.109 421.012 98.736 423.871 95.664C426.729 92.592 430.612 91.056 435.519 91.056C438.633 91.056 441.364 91.76 443.711 93.168C446.1 94.5333 447.956 96.5387 449.279 99.184C450.644 101.787 451.326 104.987 451.326 108.784ZM425.407 108.784C425.407 112.837 426.196 116.059 427.775 118.448C429.396 120.795 431.956 121.968 435.455 121.968C438.911 121.968 441.449 120.795 443.071 118.448C444.692 116.059 445.503 112.837 445.503 108.784C445.503 104.731 444.692 101.552 443.071 99.248C441.449 96.944 438.889 95.792 435.391 95.792C431.892 95.792 429.353 96.944 427.775 99.248C426.196 101.552 425.407 104.731 425.407 108.784ZM497.053 91.696V126H491.997V104.112C491.997 103.216 492.018 102.277 492.061 101.296C492.146 100.315 492.231 99.3547 492.317 98.416H492.125L480.925 126H476.189L465.309 98.416H465.117C465.245 100.336 465.309 102.299 465.309 104.304V126H460.253V91.696H467.741L478.557 119.28L489.565 91.696H497.053ZM520.995 91.12C525.176 91.12 528.269 92.0373 530.275 93.872C532.28 95.7067 533.283 98.6293 533.283 102.64V126H529.187L528.099 121.136H527.843C526.349 123.013 524.771 124.4 523.107 125.296C521.485 126.192 519.224 126.64 516.323 126.64C513.208 126.64 510.627 125.829 508.579 124.208C506.531 122.544 505.507 119.963 505.507 116.464C505.507 113.051 506.851 110.427 509.539 108.592C512.227 106.715 516.365 105.691 521.955 105.52L527.779 105.328V103.28C527.779 100.421 527.16 98.4373 525.923 97.328C524.685 96.2187 522.936 95.664 520.675 95.664C518.883 95.664 517.176 95.9413 515.555 96.496C513.933 97.008 512.419 97.6053 511.01 98.288L509.283 94.064C510.776 93.2533 512.547 92.5707 514.595 92.016C516.643 91.4187 518.776 91.12 520.995 91.12ZM522.659 109.424C518.392 109.595 515.427 110.277 513.763 111.472C512.141 112.667 511.331 114.352 511.331 116.528C511.331 118.448 511.907 119.856 513.059 120.752C514.253 121.648 515.768 122.096 517.603 122.096C520.504 122.096 522.915 121.307 524.835 119.728C526.755 118.107 527.715 115.632 527.715 112.304V109.232L522.659 109.424ZM557.638 126.64C554.608 126.64 551.899 126.021 549.51 124.784C547.163 123.547 545.307 121.627 543.942 119.024C542.619 116.421 541.958 113.093 541.958 109.04C541.958 104.816 542.662 101.381 544.07 98.736C545.478 96.0907 547.376 94.1493 549.766 92.912C552.198 91.6747 554.95 91.056 558.022 91.056C559.771 91.056 561.456 91.248 563.078 91.632C564.699 91.9733 566.022 92.4 567.046 92.912L565.318 97.584C564.294 97.2 563.099 96.8373 561.734 96.496C560.368 96.1547 559.088 95.984 557.894 95.984C551.152 95.984 547.782 100.315 547.782 108.976C547.782 113.115 548.592 116.293 550.214 118.512C551.878 120.688 554.331 121.776 557.574 121.776C559.451 121.776 561.094 121.584 562.502 121.2C563.952 120.816 565.275 120.347 566.47 119.792V124.784C565.318 125.381 564.038 125.829 562.63 126.128C561.264 126.469 559.6 126.64 557.638 126.64ZM598.308 96.432H587.108V126H581.54V96.432H570.468V91.696H598.308V96.432ZM617.688 91.056C620.632 91.056 623.149 91.696 625.24 92.976C627.373 94.256 628.995 96.0693 630.104 98.416C631.256 100.72 631.832 103.429 631.832 106.544V109.936H608.344C608.429 113.819 609.411 116.784 611.288 118.832C613.208 120.837 615.875 121.84 619.288 121.84C621.464 121.84 623.384 121.648 625.048 121.264C626.755 120.837 628.504 120.24 630.296 119.472V124.4C628.547 125.168 626.819 125.723 625.112 126.064C623.405 126.448 621.379 126.64 619.032 126.64C615.789 126.64 612.909 125.979 610.392 124.656C607.917 123.333 605.976 121.371 604.568 118.768C603.203 116.123 602.52 112.901 602.52 109.104C602.52 105.349 603.139 102.128 604.376 99.44C605.656 96.752 607.427 94.6827 609.688 93.232C611.992 91.7813 614.659 91.056 617.688 91.056ZM617.624 95.664C614.936 95.664 612.803 96.5387 611.224 98.288C609.688 99.9947 608.771 102.384 608.472 105.456H625.944C625.901 102.555 625.219 100.208 623.896 98.416C622.573 96.5813 620.483 95.664 617.624 95.664ZM656.885 91.056C661.109 91.056 664.501 92.528 667.061 95.472C669.664 98.416 670.965 102.853 670.965 108.784C670.965 114.629 669.664 119.067 667.061 122.096C664.501 125.125 661.088 126.64 656.821 126.64C654.176 126.64 651.978 126.149 650.229 125.168C648.522 124.144 647.178 122.971 646.197 121.648H645.813C645.898 122.373 645.984 123.291 646.069 124.4C646.154 125.509 646.197 126.469 646.197 127.28V141.36H640.565V91.696H645.173L645.941 96.368H646.197C647.221 94.8747 648.565 93.616 650.229 92.592C651.893 91.568 654.112 91.056 656.885 91.056ZM655.861 95.792C652.362 95.792 649.888 96.7733 648.437 98.736C647.029 100.699 646.282 103.685 646.197 107.696V108.784C646.197 113.008 646.88 116.272 648.245 118.576C649.653 120.837 652.234 121.968 655.989 121.968C658.08 121.968 659.786 121.392 661.109 120.24C662.474 119.088 663.477 117.531 664.117 115.568C664.8 113.563 665.141 111.28 665.141 108.72C665.141 104.795 664.373 101.659 662.837 99.312C661.344 96.9653 659.018 95.792 655.861 95.792Z" fill="#DBAA60"/>
<path d="M229.56 162.816C229.56 166.368 228.952 169.472 227.736 172.128C226.552 174.752 224.792 176.8 222.456 178.272C220.12 179.744 217.224 180.48 213.768 180.48C210.216 180.48 207.256 179.744 204.888 178.272C202.552 176.8 200.808 174.736 199.656 172.08C198.504 169.424 197.928 166.32 197.928 162.768C197.928 159.248 198.504 156.176 199.656 153.552C200.808 150.928 202.552 148.88 204.888 147.408C207.256 145.936 210.232 145.2 213.816 145.2C217.24 145.2 220.12 145.936 222.456 147.408C224.792 148.848 226.552 150.896 227.736 153.552C228.952 156.176 229.56 159.264 229.56 162.816ZM202.488 162.816C202.488 167.136 203.4 170.544 205.224 173.04C207.048 175.504 209.896 176.736 213.768 176.736C217.672 176.736 220.52 175.504 222.312 173.04C224.104 170.544 225 167.136 225 162.816C225 158.496 224.104 155.12 222.312 152.688C220.52 150.224 217.688 148.992 213.816 148.992C209.944 148.992 207.08 150.224 205.224 152.688C203.4 155.12 202.488 158.496 202.488 162.816ZM251.94 153.888C254.5 154.112 256.724 154.784 258.612 155.904C260.532 157.024 262.02 158.528 263.076 160.416C264.132 162.304 264.66 164.544 264.66 167.136C264.66 171.008 263.524 174.096 261.252 176.4C259.012 178.704 255.908 180.032 251.94 180.384V191.52H247.812V180.384C245.284 180.16 243.06 179.504 241.14 178.416C239.22 177.296 237.732 175.792 236.676 173.904C235.62 171.984 235.092 169.728 235.092 167.136C235.092 163.232 236.212 160.128 238.452 157.824C240.724 155.52 243.892 154.208 247.956 153.888V143.52H251.94V153.888ZM247.956 157.392C245.012 157.68 242.868 158.656 241.524 160.32C240.18 161.952 239.508 164.224 239.508 167.136C239.508 170.048 240.18 172.336 241.524 174C242.9 175.664 245.044 176.64 247.956 176.928V157.392ZM251.94 176.928C254.82 176.608 256.932 175.616 258.276 173.952C259.62 172.288 260.292 170.016 260.292 167.136C260.292 164.256 259.604 162 258.228 160.368C256.884 158.736 254.788 157.76 251.94 157.44V176.928ZM275.345 169.968C275.345 170.352 275.329 170.928 275.297 171.696C275.265 172.464 275.217 173.232 275.153 174C275.121 174.768 275.089 175.376 275.057 175.824L288.833 154.272H294.017V180H290.081V164.832C290.081 164.32 290.081 163.648 290.081 162.816C290.113 161.984 290.145 161.168 290.177 160.368C290.209 159.536 290.241 158.912 290.273 158.496L276.593 180H271.361V154.272H275.345V169.968ZM327.597 188.928H323.469V180H302.205V154.272H306.429V176.448H319.725V154.272H323.949V176.496H327.597V188.928ZM336.517 169.968C336.517 170.352 336.501 170.928 336.469 171.696C336.437 172.464 336.389 173.232 336.325 174C336.293 174.768 336.261 175.376 336.229 175.824L350.005 154.272H355.189V180H351.253V164.832C351.253 164.32 351.253 163.648 351.253 162.816C351.285 161.984 351.317 161.168 351.349 160.368C351.381 159.536 351.413 158.912 351.445 158.496L337.765 180H332.533V154.272H336.517V169.968ZM373.121 153.84C376.257 153.84 378.577 154.528 380.081 155.904C381.585 157.28 382.337 159.472 382.337 162.48V180H379.265L378.449 176.352H378.257C377.137 177.76 375.953 178.8 374.705 179.472C373.489 180.144 371.793 180.48 369.617 180.48C367.281 180.48 365.345 179.872 363.809 178.656C362.273 177.408 361.505 175.472 361.505 172.848C361.505 170.288 362.513 168.32 364.529 166.944C366.545 165.536 369.649 164.768 373.841 164.64L378.209 164.496V162.96C378.209 160.816 377.745 159.328 376.817 158.496C375.889 157.664 374.577 157.248 372.881 157.248C371.537 157.248 370.257 157.456 369.041 157.872C367.825 158.256 366.689 158.704 365.633 159.216L364.337 156.048C365.457 155.44 366.785 154.928 368.321 154.512C369.857 154.064 371.457 153.84 373.121 153.84ZM374.369 167.568C371.169 167.696 368.945 168.208 367.697 169.104C366.481 170 365.873 171.264 365.873 172.896C365.873 174.336 366.305 175.392 367.169 176.064C368.065 176.736 369.201 177.072 370.577 177.072C372.753 177.072 374.561 176.48 376.001 175.296C377.441 174.08 378.161 172.224 378.161 169.728V167.424L374.369 167.568ZM409.867 180H405.595V157.776H398.011C397.595 163.184 397.019 167.552 396.283 170.88C395.547 174.176 394.571 176.576 393.355 178.08C392.139 179.584 390.603 180.336 388.747 180.336C388.331 180.336 387.915 180.304 387.499 180.24C387.115 180.208 386.795 180.128 386.539 180V176.832C386.731 176.896 386.939 176.944 387.163 176.976C387.387 177.008 387.611 177.024 387.835 177.024C389.563 177.024 390.939 175.184 391.963 171.504C393.019 167.824 393.819 162.08 394.363 154.272H409.867V180ZM429.889 164.832C436.577 164.832 439.921 167.264 439.921 172.128C439.921 174.528 439.105 176.448 437.473 177.888C435.841 179.296 433.249 180 429.697 180H418.033V154.272H422.257V164.832H429.889ZM435.697 172.368C435.697 170.8 435.137 169.744 434.017 169.2C432.929 168.624 431.393 168.336 429.409 168.336H422.257V176.592H429.505C431.297 176.592 432.769 176.272 433.921 175.632C435.105 174.992 435.697 173.904 435.697 172.368ZM450.757 154.272V164.976H464.725V154.272H468.949V180H464.725V168.528H450.757V180H446.533V154.272H450.757ZM477.096 180V154.272H481.32V164.832H487.992C491.32 164.832 493.784 165.44 495.384 166.656C496.984 167.872 497.784 169.696 497.784 172.128C497.784 174.528 497 176.448 495.432 177.888C493.864 179.296 491.32 180 487.8 180H477.096ZM502.056 180V154.272H506.28V180H502.056ZM487.416 176.592C489.24 176.592 490.728 176.288 491.88 175.68C493.032 175.04 493.608 173.936 493.608 172.368C493.608 170.8 493.08 169.744 492.024 169.2C490.968 168.624 489.448 168.336 487.464 168.336H481.32V176.592H487.416ZM535.287 143.616C535.063 146.016 534.247 147.84 532.839 149.088C531.463 150.304 529.255 150.912 526.215 150.912C523.079 150.912 520.855 150.304 519.543 149.088C518.263 147.872 517.543 146.048 517.383 143.616H521.319C521.479 145.344 521.927 146.512 522.663 147.12C523.431 147.696 524.647 147.984 526.311 147.984C527.783 147.984 528.935 147.68 529.767 147.072C530.631 146.432 531.143 145.28 531.303 143.616H535.287ZM518.439 169.968C518.439 170.352 518.423 170.928 518.391 171.696C518.359 172.464 518.311 173.232 518.247 174C518.215 174.768 518.183 175.376 518.151 175.824L531.927 154.272H537.111V180H533.175V164.832C533.175 164.32 533.175 163.648 533.175 162.816C533.207 161.984 533.239 161.168 533.271 160.368C533.303 159.536 533.335 158.912 533.367 158.496L519.687 180H514.455V154.272H518.439V169.968ZM580.762 154.272V176.448H584.506V188.928H580.426V180H562.522V188.928H558.49V176.448H560.554C562.762 173.408 564.41 169.952 565.498 166.08C566.618 162.176 567.194 158.24 567.226 154.272H580.762ZM570.97 157.584C570.842 159.76 570.506 162.016 569.962 164.352C569.418 166.656 568.714 168.864 567.85 170.976C567.018 173.088 566.042 174.912 564.922 176.448H576.682V157.584H570.97ZM593.533 169.968C593.533 170.352 593.517 170.928 593.485 171.696C593.453 172.464 593.405 173.232 593.341 174C593.309 174.768 593.277 175.376 593.245 175.824L607.021 154.272H612.205V180H608.269V164.832C608.269 164.32 608.269 163.648 608.269 162.816C608.301 161.984 608.333 161.168 608.365 160.368C608.397 159.536 608.429 158.912 608.461 158.496L594.781 180H589.549V154.272H593.533V169.968ZM639.977 180H635.705V157.776H628.121C627.705 163.184 627.129 167.552 626.393 170.88C625.657 174.176 624.681 176.576 623.465 178.08C622.249 179.584 620.713 180.336 618.857 180.336C618.441 180.336 618.025 180.304 617.609 180.24C617.225 180.208 616.905 180.128 616.649 180V176.832C616.841 176.896 617.049 176.944 617.273 176.976C617.497 177.008 617.721 177.024 617.945 177.024C619.673 177.024 621.049 175.184 622.073 171.504C623.129 167.824 623.929 162.08 624.473 154.272H639.977V180ZM667.727 180H663.455V157.776H655.871C655.455 163.184 654.879 167.552 654.143 170.88C653.407 174.176 652.431 176.576 651.215 178.08C649.999 179.584 648.463 180.336 646.607 180.336C646.191 180.336 645.775 180.304 645.359 180.24C644.975 180.208 644.655 180.128 644.399 180V176.832C644.591 176.896 644.799 176.944 645.023 176.976C645.247 177.008 645.471 177.024 645.695 177.024C647.423 177.024 648.799 175.184 649.823 171.504C650.879 167.824 651.679 162.08 652.223 154.272H667.727V180ZM685.829 153.792C688.037 153.792 689.925 154.272 691.493 155.232C693.093 156.192 694.309 157.552 695.141 159.312C696.005 161.04 696.437 163.072 696.437 165.408V167.952H678.821C678.885 170.864 679.621 173.088 681.029 174.624C682.469 176.128 684.469 176.88 687.029 176.88C688.661 176.88 690.101 176.736 691.349 176.448C692.629 176.128 693.941 175.68 695.285 175.104V178.8C693.973 179.376 692.677 179.792 691.397 180.048C690.117 180.336 688.597 180.48 686.837 180.48C684.405 180.48 682.245 179.984 680.357 178.992C678.501 178 677.045 176.528 675.989 174.576C674.965 172.592 674.453 170.176 674.453 167.328C674.453 164.512 674.917 162.096 675.845 160.08C676.805 158.064 678.133 156.512 679.829 155.424C681.557 154.336 683.557 153.792 685.829 153.792ZM685.781 157.248C683.765 157.248 682.165 157.904 680.981 159.216C679.829 160.496 679.141 162.288 678.917 164.592H692.021C691.989 162.416 691.477 160.656 690.485 159.312C689.493 157.936 687.925 157.248 685.781 157.248ZM715.226 153.792C718.394 153.792 720.938 154.896 722.858 157.104C724.81 159.312 725.786 162.64 725.786 167.088C725.786 171.472 724.81 174.8 722.858 177.072C720.938 179.344 718.378 180.48 715.178 180.48C713.194 180.48 711.546 180.112 710.234 179.376C708.954 178.608 707.946 177.728 707.21 176.736H706.922C706.986 177.28 707.05 177.968 707.114 178.8C707.178 179.632 707.21 180.352 707.21 180.96V191.52H702.986V154.272H706.442L707.018 157.776H707.21C707.978 156.656 708.986 155.712 710.234 154.944C711.482 154.176 713.146 153.792 715.226 153.792ZM714.458 157.344C711.834 157.344 709.978 158.08 708.89 159.552C707.834 161.024 707.274 163.264 707.21 166.272V167.088C707.21 170.256 707.722 172.704 708.746 174.432C709.802 176.128 711.738 176.976 714.554 176.976C716.122 176.976 717.402 176.544 718.394 175.68C719.418 174.816 720.17 173.648 720.65 172.176C721.162 170.672 721.418 168.96 721.418 167.04C721.418 164.096 720.842 161.744 719.69 159.984C718.57 158.224 716.826 157.344 714.458 157.344ZM764.093 154.272H768.701L757.709 166.656L769.613 180H764.717L753.101 166.944V180H748.877V154.272H753.101V166.752L764.093 154.272ZM795.714 167.088C795.714 171.344 794.626 174.64 792.45 176.976C790.306 179.312 787.394 180.48 783.714 180.48C781.442 180.48 779.41 179.968 777.618 178.944C775.858 177.888 774.466 176.368 773.442 174.384C772.418 172.368 771.906 169.936 771.906 167.088C771.906 162.832 772.978 159.552 775.122 157.248C777.266 154.944 780.178 153.792 783.858 153.792C786.194 153.792 788.242 154.32 790.002 155.376C791.794 156.4 793.186 157.904 794.178 159.888C795.202 161.84 795.714 164.24 795.714 167.088ZM776.274 167.088C776.274 170.128 776.866 172.544 778.05 174.336C779.266 176.096 781.186 176.976 783.81 176.976C786.402 176.976 788.306 176.096 789.522 174.336C790.738 172.544 791.346 170.128 791.346 167.088C791.346 164.048 790.738 161.664 789.522 159.936C788.306 158.208 786.386 157.344 783.762 157.344C781.138 157.344 779.234 158.208 778.05 159.936C776.866 161.664 776.274 164.048 776.274 167.088ZM830.008 154.272V180H826.216V163.584C826.216 162.912 826.232 162.208 826.264 161.472C826.328 160.736 826.392 160.016 826.456 159.312H826.312L817.912 180H814.36L806.2 159.312H806.056C806.152 160.752 806.2 162.224 806.2 163.728V180H802.408V154.272H808.024L816.136 174.96L824.392 154.272H830.008ZM859.965 154.272V180H855.741V157.872H842.445V180H838.221V154.272H859.965ZM877.918 153.84C881.054 153.84 883.374 154.528 884.878 155.904C886.382 157.28 887.134 159.472 887.134 162.48V180H884.062L883.246 176.352H883.054C881.934 177.76 880.75 178.8 879.502 179.472C878.286 180.144 876.59 180.48 874.414 180.48C872.078 180.48 870.142 179.872 868.606 178.656C867.07 177.408 866.302 175.472 866.302 172.848C866.302 170.288 867.31 168.32 869.326 166.944C871.342 165.536 874.446 164.768 878.638 164.64L883.006 164.496V162.96C883.006 160.816 882.542 159.328 881.614 158.496C880.686 157.664 879.374 157.248 877.678 157.248C876.334 157.248 875.054 157.456 873.838 157.872C872.622 158.256 871.486 158.704 870.43 159.216L869.134 156.048C870.254 155.44 871.582 154.928 873.118 154.512C874.654 154.064 876.254 153.84 877.918 153.84ZM879.166 167.568C875.966 167.696 873.742 168.208 872.494 169.104C871.278 170 870.67 171.264 870.67 172.896C870.67 174.336 871.102 175.392 871.966 176.064C872.862 176.736 873.998 177.072 875.374 177.072C877.55 177.072 879.358 176.48 880.798 175.296C882.238 174.08 882.958 172.224 882.958 169.728V167.424L879.166 167.568ZM899.304 154.272V164.976H913.272V154.272H917.496V180H913.272V168.528H899.304V180H895.08V154.272H899.304ZM929.627 169.968C929.627 170.352 929.611 170.928 929.579 171.696C929.547 172.464 929.499 173.232 929.435 174C929.403 174.768 929.371 175.376 929.339 175.824L943.115 154.272H948.299V180H944.363V164.832C944.363 164.32 944.363 163.648 944.363 162.816C944.395 161.984 944.427 161.168 944.459 160.368C944.491 159.536 944.523 158.912 944.555 158.496L930.875 180H925.643V154.272H929.627V169.968ZM977.318 143.616C977.094 146.016 976.278 147.84 974.87 149.088C973.494 150.304 971.286 150.912 968.246 150.912C965.11 150.912 962.886 150.304 961.574 149.088C960.294 147.872 959.574 146.048 959.414 143.616H963.35C963.51 145.344 963.958 146.512 964.694 147.12C965.462 147.696 966.678 147.984 968.342 147.984C969.814 147.984 970.966 147.68 971.798 147.072C972.662 146.432 973.174 145.28 973.334 143.616H977.318ZM960.47 169.968C960.47 170.352 960.454 170.928 960.422 171.696C960.39 172.464 960.342 173.232 960.278 174C960.246 174.768 960.214 175.376 960.182 175.824L973.958 154.272H979.142V180H975.206V164.832C975.206 164.32 975.206 163.648 975.206 162.816C975.238 161.984 975.27 161.168 975.302 160.368C975.334 159.536 975.366 158.912 975.398 158.496L961.718 180H956.486V154.272H960.47V169.968ZM1014.97 147.84C1017.75 147.84 1020.15 148.416 1022.17 149.568C1024.19 150.688 1025.87 152.352 1027.21 154.56L1023.99 157.056C1022.81 155.008 1021.47 153.568 1019.96 152.736C1018.49 151.872 1016.7 151.44 1014.59 151.44C1012.03 151.44 1010.15 151.952 1008.97 152.976C1007.79 154 1007.19 155.248 1007.19 156.72C1007.19 157.84 1007.55 158.832 1008.25 159.696C1008.95 160.528 1010.36 161.184 1012.47 161.664L1019.34 163.2C1022.38 163.872 1024.49 164.896 1025.67 166.272C1026.89 167.616 1027.5 169.296 1027.5 171.312C1027.5 173.104 1026.99 174.704 1025.96 176.112C1024.97 177.488 1023.56 178.56 1021.74 179.328C1019.91 180.096 1017.77 180.48 1015.31 180.48C1011.88 180.48 1009.05 179.808 1006.81 178.464C1004.57 177.088 1002.86 175.424 1001.67 173.472L1005.03 170.736C1005.96 172.56 1007.27 174.048 1008.97 175.2C1010.7 176.32 1012.89 176.88 1015.55 176.88C1018.01 176.88 1019.95 176.432 1021.35 175.536C1022.79 174.64 1023.51 173.344 1023.51 171.648C1023.51 170.624 1023.18 169.712 1022.51 168.912C1021.83 168.08 1020.57 167.456 1018.71 167.04L1011.27 165.36C1008.33 164.72 1006.23 163.68 1004.99 162.24C1003.77 160.8 1003.16 159.136 1003.16 157.248C1003.16 155.552 1003.63 154 1004.55 152.592C1005.51 151.152 1006.87 150 1008.63 149.136C1010.43 148.272 1012.54 147.84 1014.97 147.84ZM1056.36 148.32V151.92H1045.32V180H1041.48V151.92H1030.44V148.32H1056.36ZM1066.9 148.32V180H1063.06V148.32H1066.9ZM1081.1 148.32V162.144H1098.29V148.32H1102.13V180H1098.29V165.744H1081.1V180H1077.26V148.32H1081.1ZM1116.35 176.4H1134.5V180H1112.51V148.32H1116.35V176.4ZM1159.13 169.968C1159.13 170.352 1159.11 170.928 1159.08 171.696C1159.05 172.464 1159 173.232 1158.93 174C1158.9 174.768 1158.87 175.376 1158.84 175.824L1172.61 154.272H1177.8V180H1173.86V164.832C1173.86 164.32 1173.86 163.648 1173.86 162.816C1173.89 161.984 1173.93 161.168 1173.96 160.368C1173.99 159.536 1174.02 158.912 1174.05 158.496L1160.37 180H1155.14V154.272H1159.13V169.968ZM1226.39 148.32L1214.39 180H1210.02L1197.97 148.32H1202.1L1210.16 170.208L1212.18 176.496L1214.19 170.256L1222.26 148.32H1226.39ZM1236.77 148.32V180H1232.93V148.32H1236.77ZM1250.98 148.32V164.64L1266.91 148.32H1271.95L1259.33 161.232L1272.1 180H1267.49L1256.64 164.064L1250.98 169.824V180H1247.14V148.32H1250.98ZM1282.48 148.32V180H1278.64V148.32H1282.48ZM1317.7 148.32V180H1312.95L1299.7 158.784L1296.34 152.832H1296.3L1296.49 157.632V180H1292.84V148.32H1297.59L1310.79 169.44L1314.2 175.536H1314.25L1314.06 170.688V148.32H1317.7ZM1340.86 180.48C1337.85 180.48 1335.24 179.824 1333.03 178.512C1330.86 177.168 1329.16 175.28 1327.95 172.848C1326.76 170.416 1326.17 167.52 1326.17 164.16C1326.17 160.8 1326.79 157.904 1328.04 155.472C1329.32 153.04 1331.1 151.168 1333.37 149.856C1335.64 148.512 1338.25 147.84 1341.19 147.84C1344.33 147.84 1346.87 148.432 1348.83 149.616C1350.81 150.8 1352.41 152.624 1353.63 155.088L1350.12 157.008C1349.42 155.184 1348.3 153.808 1346.76 152.88C1345.26 151.92 1343.4 151.44 1341.19 151.44C1339.05 151.44 1337.15 151.952 1335.48 152.976C1333.85 153.968 1332.55 155.424 1331.59 157.344C1330.67 159.232 1330.2 161.504 1330.2 164.16C1330.2 168.128 1331.11 171.248 1332.94 173.52C1334.79 175.76 1337.48 176.88 1341 176.88C1342.76 176.88 1344.35 176.592 1345.75 176.016C1347.16 175.408 1348.28 174.496 1349.11 173.28C1349.95 172.064 1350.36 170.544 1350.36 168.72V167.616H1340.28V164.016H1353.87V180H1350.84L1350.7 175.728C1349.74 177.264 1348.43 178.448 1346.76 179.28C1345.13 180.08 1343.16 180.48 1340.86 180.48Z" fill="#EAEAEA"/>
</svg>
