<?xml version="1.0" encoding="utf-8"?>
<!-- Generator: Adobe Illustrator 24.3.0, SVG Export Plug-In . SVG Version: 6.00 Build 0)  -->
<svg version="1.1" id="Layer_1" xmlns="http://www.w3.org/2000/svg" xmlns:xlink="http://www.w3.org/1999/xlink" x="0px" y="0px"
	 viewBox="0 0 1190.55 841.89" style="enable-background:new 0 0 1190.55 841.89;" xml:space="preserve">
<style type="text/css">
	.st0{stroke:#000000;stroke-miterlimit:10;}
	.st1{fill:none;stroke:#000000;stroke-width:40;stroke-miterlimit:10;}
</style>
<path class="st0" d="M811.44,499.54l-54.2,159.07c-57.7-19.94-106.5-58.97-138.83-109.54L811.44,499.54z"/>
<path class="st0" d="M131.73,675.09l409,3.14c22.54,0.17,39.42-22.61,34.7-46.82l-13.43-68.82l-212.68,51.09
	c-27.17,6.53-54.56-9.95-61.52-37.02L274.7,525.8c-7.66-29.79,10.41-60.11,40.26-67.54l215.71-56.59l-9.07-46
	c-3.93-20.14-22.81-32.18-40.68-25.94L134.48,450.64l-33.25,183.32C97.39,655.15,112.06,674.94,131.73,675.09z"/>
<path class="st1" d="M151.46,466.29l20.27-111.2c3.6-19.75,22.15-32.89,41.59-29.47L442.63,366"/>
<path d="M908.63,391.24l-1.09-5.05C899.67,355,864.56,333,830.68,343.5L329.29,473.03c-25.47,6.58-40.04,31.31-33.46,56.78
	l9.77,33.96c8.4,25.94,22.07,35.76,48.74,31.17L865.03,465.1C899.22,455.45,915.3,426.07,908.63,391.24z M369.3,558.78
	c-17.45,0.12-31.68-13.93-31.8-31.37c-0.12-17.45,13.93-31.68,31.37-31.8c17.44-0.12,31.68,13.93,31.8,31.37
	C400.79,544.43,386.75,558.66,369.3,558.78z M845.43,435.77c-17.45,0.12-31.68-13.93-31.8-31.37c-0.12-17.45,13.93-31.68,31.37-31.8
	c17.45-0.12,31.68,13.93,31.8,31.37C876.92,421.42,862.87,435.66,845.43,435.77z"/>
<path d="M870.78,325.22l59.93-175.73c-26.9-9.03-55.69-13.92-85.63-13.92c-143.26,0-260.35,112.04-268.42,253.28l253.87-65.05
	C844.84,322.03,858.35,322.28,870.78,325.22z"/>
<path class="st0" d="M834.56,493.45l-47.36,146.79l43.95-37.29l29.19,44.26l24.5-47.71l45.88,32.24l9.13-52.17l56.04,16.46
	l-8.75-52.01l54.64,3.08l-20.1-50.32l53.17-12.88l-33.72-43.26l47.1-31.65l-45.61-32l35.28-43.11l-51.62-12.95l22.41-49.66
	l-51.7,3.83l5.42-56.24l-51.26,16.55l-11.34-55.14l-49.54,151c0,0,11.28,8.74,15.5,13.61c19.44,22.48,28.93,50.04,20.78,84.26
	c-4.76,19.99-20.44,36.3-32.3,43.41S834.56,493.45,834.56,493.45z"/>
</svg>
