<?xml version="1.0" encoding="utf-8"?>
<!-- Generator: Adobe Illustrator 24.3.0, SVG Export Plug-In . SVG Version: 6.00 Build 0)  -->
<svg version="1.1" id="Layer_1" xmlns="http://www.w3.org/2000/svg" xmlns:xlink="http://www.w3.org/1999/xlink" x="0px" y="0px"
	 viewBox="0 0 1190.55 841.89" style="enable-background:new 0 0 1190.55 841.89;" xml:space="preserve">
<style type="text/css">
	.st0{fill:none;stroke:#000000;stroke-width:40;stroke-miterlimit:10;}
</style>
<circle class="st0" cx="202.45" cy="744.84" r="55.56"/>
<circle class="st0" cx="588.75" cy="744.84" r="55.56"/>
<line class="st0" x1="527.71" y1="608.85" x2="887.26" y2="448.41"/>
<circle cx="887.92" cy="447.26" r="20"/>
<path d="M512.23,571.06l363-430.28c10.7-12.68,29.54-14.59,42.56-4.31l54.49,43l23.5-31.53l-85.1-67.58
	c-9.72-7.72-11.19-21.93-3.24-31.48v0c7.08-8.51,19.65-9.86,28.38-3.04l96.83,75.6c12.48,9.74,14.68,27.76,4.91,40.21l-38.54,49.17
	c-10.85,13.84-30.84,16.34-44.77,5.59l-55.69-42.99L597.29,533.67L512.23,571.06z"/>
<path d="M491.61,579.93v-23.32c0-12.35-9.52-22.35-21.27-22.35H293.77c-12.31,0-22.29,10.48-22.29,23.42v117.45L491.61,579.93z"/>
<path d="M888.88,694.31l-20.75-195L634.92,603.84c-12.15,4.76-19.47-10.03-8.03-17.38l-77.42-8.67L280.73,691.28
	c20.27,28.07,22.25,60.82,8.32,93.12l215.34,0.21c-29.48-66.07,10.7-125.63,75.31-134.46c53.91-4.2,104.28,31.05,103.31,103.13
	l185.69-32.24C881.43,718.83,890.25,707.14,888.88,694.31z M667.39,641.41c-13.83,4.21-19.14-9.92-7.89-17.56l164.41-74.35
	c12.75-4.42,19.72,11.43,7.91,18.15L667.39,641.41z M689.24,656.67l134.92-53.29c12.94-3.83,19.02,11.76,6.92,17.93L696.8,674.3
	C682.79,677.87,677.66,663.78,689.24,656.67z M831.11,673.98l-103.62,34.24c-14.19,2.76-18.33-11.88-6.36-18.31l104.36-34.34
	C838.62,652.49,843.54,668.52,831.11,673.98z"/>
</svg>
